<?xml version="1.0" encoding="UTF-8"?><svg id="a" xmlns="http://www.w3.org/2000/svg" width="2.74in" height="3.74in" viewBox="0 0 197.28 269.28"><circle cx="98.945" cy="121.946" r="27.136"/><path d="M128.243,195.266v-30.587c-8.538-5.512-18.684-8.748-29.603-8.748s-21.065,3.235-29.603,8.748v30.587l29.908,7.972,29.298-7.972Z"/><path d="M69.037,164.679c-5.307,3.427-9.977,7.741-13.805,12.738-2.56,3.343-1.819,8.159,1.631,10.573,6.385,4.467,12.174,7.276,12.174,7.276v-30.587Z"/><path d="M128.243,164.679v30.587s5.789-2.81,12.174-7.276c3.45-2.413,4.191-7.23,1.631-10.573-3.828-4.998-8.498-9.312-13.805-12.738Z"/><path d="M98.64,204.082c-38.747,0-70.27-31.523-70.27-70.27S59.893,63.542,98.64,63.542s70.27,31.523,70.27,70.27-31.523,70.27-70.27,70.27ZM98.64,68.542c-35.99,0-65.27,29.28-65.27,65.27s29.28,65.27,65.27,65.27,65.27-29.28,65.27-65.27-29.28-65.27-65.27-65.27Z"/></svg>