<?xml version="1.0" encoding="UTF-8"?><svg id="a" xmlns="http://www.w3.org/2000/svg" width="2.74in" height="3.74in" viewBox="0 0 197.28 269.28"><path d="M155.585,142.371c.021-.163.041-.326.061-.489,2.33-.52,4.107-2.557,4.185-5.053.078-2.495-1.566-4.638-3.856-5.304-.01-.165-.025-.329-.036-.494,2.188-.954,3.544-3.293,3.145-5.758-.398-2.46-2.415-4.25-4.786-4.471-.041-.16-.092-.318-.134-.478,1.965-1.35,2.853-3.898,1.999-6.242-.012-.033-.028-.063-.04-.095-.011-.033-.019-.066-.031-.098-.862-2.339-3.185-3.71-5.556-3.472-.073-.153-.139-.312-.213-.464,1.661-1.702,2.052-4.358.768-6.49h0c-1.287-2.137-3.828-3.032-6.112-2.35-.103-.14-.202-.284-.306-.422,1.312-1.988,1.192-4.675-.478-6.526-1.671-1.853-4.336-2.248-6.449-1.143-.126-.117-.251-.235-.378-.351.912-2.201.285-4.818-1.706-6.319-1.992-1.502-4.682-1.384-6.547.1-.142-.088-.284-.178-.427-.265.485-2.335-.638-4.792-2.878-5.892-2.241-1.1-4.872-.487-6.423,1.326-.153-.058-.305-.117-.458-.174.037-2.385-1.528-4.587-3.935-5.246-2.408-.659-4.877.439-6.059,2.511-.161-.029-.323-.057-.485-.084-.414-2.351-2.368-4.217-4.858-4.408-2.489-.191-4.706,1.355-5.474,3.614-.165.002-.33.008-.495.012-.854-2.23-3.129-3.69-5.61-3.403-2.478.287-4.358,2.224-4.684,4.586-.161.034-.321.074-.482.109-1.261-2.025-3.769-3.028-6.15-2.277-2.377.749-3.856,3.003-3.733,5.381-.152.064-.306.125-.458.19-1.619-1.747-4.265-2.258-6.46-1.077-2.199,1.183-3.229,3.681-2.656,5.998-.141.093-.286.182-.425.277-1.921-1.407-4.611-1.418-6.541.159-1.932,1.579-2.456,4.221-1.455,6.386-.123.12-.247.239-.369.36-2.154-1.018-4.799-.518-6.394,1.398-1.596,1.917-1.609,4.61-.217,6.544-.095.138-.191.275-.285.414-2.31-.597-4.817.406-6.024,2.591h0c-1.207,2.185-.721,4.842,1.015,6.479-.066.149-.132.299-.196.448-2.381-.152-4.655,1.305-5.43,3.678-.774,2.373.203,4.892,2.216,6.173-.037.16-.072.319-.107.479-2.368.299-4.327,2.161-4.639,4.638-.312,2.477,1.124,4.766,3.344,5.643-.006.165-.009.329-.013.494-2.269.744-3.838,2.945-3.673,5.437.165,2.49,2.01,4.463,4.354,4.902.026.162.058.324.085.486-2.085,1.162-3.207,3.62-2.572,6.034.634,2.409,2.813,3.994,5.193,3.987.017.047.031.095.048.143.04.109.086.213.126.321-1.824,1.532-2.464,4.152-1.39,6.402h0c1.075,2.253,3.52,3.403,5.861,2.943.086.145.168.295.255.439-1.498,1.85-1.64,4.536-.159,6.54h0c1.483,2.007,4.097,2.659,6.307,1.765.114.128.226.258.341.385-1.122,2.102-.75,4.768,1.086,6.455h0c1.837,1.688,4.526,1.831,6.527.534.137.104.273.21.41.313-.704,2.276.164,4.824,2.286,6.134,2.122,1.31,4.789.943,6.508-.708.15.075.3.15.451.223-.267,2.371,1.079,4.713,3.412,5.6h0c2.333.888,4.896.033,6.272-1.915.158.044.315.087.473.13.184,2.379,1.948,4.426,4.407,4.858,2.459.432,4.814-.891,5.798-3.065.163.014.327.025.49.037.633,2.302,2.754,3.977,5.251,3.934,2.495-.044,4.556-1.79,5.11-4.11.163-.018.327-.041.49-.06,1.059,2.139,3.461,3.38,5.904,2.862h0c2.436-.517,4.125-2.615,4.233-4.993.157-.049.314-.108.471-.158,1.442,1.897,4.029,2.662,6.328,1.697,2.301-.965,3.567-3.35,3.222-5.71.149-.079.303-.152.451-.233,1.775,1.586,4.449,1.858,6.522.477,2.077-1.383,2.856-3.962,2.071-6.214.135-.109.272-.215.405-.325,2.045,1.223,4.726.981,6.5-.771,1.775-1.753,2.049-4.433.85-6.493.111-.131.222-.262.332-.395,2.24.813,4.827.069,6.237-1.988,1.41-2.057,1.173-4.738-.393-6.535.082-.146.164-.292.244-.439,2.355.381,4.759-.851,5.758-3.138.999-2.287.269-4.888-1.611-6.357.052-.155.102-.31.153-.466,2.385-.069,4.515-1.732,5.065-4.167h0c.55-2.435-.657-4.851-2.78-5.94Z"/><circle cx="98.718" cy="135.031" r="54.029"/><circle cx="98.653" cy="134.952" r="57.031"/><circle cx="98.64" cy="134.957" r="53.548" fill="#fff"/><circle cx="98.64" cy="134.957" r="35.575"/><circle cx="98.64" cy="134.957" r="32.808" fill="#fff"/><rect x="36.351" y="119.903" width="124.579" height="30.107" transform="translate(-40.264 41.957) rotate(-20.033)" fill="#fff"/><path d="M44.68,171.72l-10.999-30.164,118.92-43.362,10.999,30.165-118.92,43.362ZM36.245,142.749l9.628,26.406,115.162-41.992-9.628-26.406-115.162,41.991Z"/><path d="M54.114,150.1l-4.097,1.494-.999-2.738c-.29-.797-.516-1.277-.675-1.443s-.389-.193-.688-.085c-.337.122-.508.321-.511.595-.004.272.141.809.432,1.606l2.669,7.319c.279.766.506,1.248.683,1.449.176.199.423.242.741.127.305-.111.461-.301.47-.57.009-.268-.145-.834-.46-1.699l-.722-1.981,4.097-1.493.225.613c.594,1.631.9,2.83.92,3.596.018.767-.273,1.551-.875,2.352-.601.801-1.479,1.412-2.633,1.832-1.201.438-2.27.582-3.207.431s-1.673-.565-2.206-1.241c-.534-.676-1.081-1.787-1.645-3.332l-1.679-4.604c-.414-1.135-.687-2.001-.815-2.598-.129-.596-.096-1.227.098-1.893.195-.666.58-1.275,1.154-1.827s1.306-.989,2.195-1.313c1.207-.439,2.288-.57,3.243-.389.955.18,1.683.572,2.184,1.18.5.607,1.019,1.646,1.555,3.117l.546,1.496Z"/><path d="M65.81,148.514c.577,1.584.948,2.719,1.114,3.404.166.687.152,1.373-.042,2.062-.194.688-.572,1.299-1.134,1.834-.562.537-1.287.967-2.176,1.291-.844.307-1.651.445-2.424.414s-1.463-.248-2.073-.65-1.071-.914-1.387-1.533c-.313-.621-.767-1.742-1.358-3.365l-.982-2.695c-.578-1.584-.949-2.717-1.115-3.404-.165-.686-.151-1.372.043-2.061.193-.688.571-1.299,1.133-1.836.562-.535,1.288-.965,2.177-1.289.844-.307,1.651-.445,2.423-.416.772.031,1.464.248,2.073.65.61.402,1.072.914,1.387,1.535s.768,1.742,1.358,3.363l.983,2.695ZM59.824,144.83c-.267-.732-.479-1.186-.635-1.361-.155-.174-.359-.216-.612-.123-.215.078-.348.22-.401.427-.053.208.068.716.363,1.526l2.684,7.359c.333.914.576,1.465.729,1.652.152.188.365.23.638.131.279-.102.412-.29.4-.564-.012-.275-.187-.877-.525-1.805l-2.641-7.242Z"/><path d="M73.123,135.395l5.745,15.758-3.591,1.31-4.744-6.386,2.612,7.162-3.426,1.25-5.746-15.758,3.427-1.25,4.884,6.258-2.587-7.094,3.426-1.25Z"/><path d="M74.768,134.795l6.939-2.531,1.15,3.153-2.842,1.037,1.089,2.988,2.53-.923,1.094,2.998-2.53.923,2.413,6.618-4.099,1.494-5.745-15.758Z"/><path d="M86.798,130.408l5.745,15.758-4.098,1.494-5.745-15.757,4.098-1.495Z"/><path d="M88.442,129.809l3.066-1.118c1.979-.722,3.35-1.119,4.113-1.191.764-.073,1.403.032,1.918.315.515.282.911.662,1.188,1.138.275.477.686,1.461,1.23,2.953l2.012,5.518c.516,1.416.795,2.385.834,2.91.042.525-.055.984-.286,1.373-.233.391-.573.727-1.021,1.012-.449.285-1.162.605-2.142.963l-5.169,1.885-5.745-15.758ZM93.522,131.011l3.779,10.366c.591-.217.911-.467.96-.754.052-.286-.115-.955-.498-2.006l-2.232-6.122c-.261-.714-.451-1.163-.568-1.348-.119-.185-.277-.294-.474-.329-.195-.036-.52.029-.967.193Z"/><path d="M99.46,125.792l6.832-2.491,1.149,3.153-2.734.997,1.09,2.988,2.56-.934,1.093,2.998-2.56.934,1.264,3.465,3.007-1.097,1.15,3.154-7.105,2.59-5.745-15.757Z"/><path d="M116.892,119.435l5.746,15.758-3.591,1.309-4.744-6.386,2.611,7.163-3.426,1.25-5.745-15.758,3.426-1.249,4.884,6.257-2.587-7.095,3.426-1.249Z"/><path d="M126.79,115.826l1.149,3.153-2.433.887,4.596,12.604-4.097,1.494-4.596-12.604-2.425.884-1.149-3.153,8.954-3.265Z"/><path d="M131.822,113.991l5.745,15.758-4.098,1.494-5.745-15.758,4.098-1.494Z"/><path d="M140.55,110.809l8.089,14.903-4.188,1.527-1.253-2.752-1.465.534.785,2.922-4.235,1.544-3.655-16.52,5.922-2.16ZM142.072,121.733c-.858-1.71-1.869-3.84-3.037-6.392.683,3.17,1.225,5.472,1.627,6.905l1.41-.514Z"/><path d="M147.687,108.206l4.596,12.604,2.492-.909,1.149,3.153-6.589,2.403-5.746-15.758,4.098-1.494Z"/><polygon points="88.08 105.999 90.054 108.521 93.063 107.424 91.273 110.08 93.246 112.603 90.167 111.722 88.378 114.378 88.264 111.178 85.185 110.297 88.194 109.199 88.08 105.999"/><polygon points="81.583 115.897 82.968 117.667 85.08 116.897 83.824 118.761 85.209 120.531 83.048 119.913 81.792 121.777 81.712 119.531 79.551 118.913 81.663 118.143 81.583 115.897"/><polygon points="99.424 109.391 100.809 111.162 102.92 110.392 101.664 112.256 103.049 114.026 100.888 113.408 99.633 115.272 99.553 113.026 97.392 112.408 99.504 111.638 99.424 109.391"/><polygon points="109.232 163.903 107.259 161.38 104.25 162.477 106.04 159.821 104.066 157.298 107.146 158.179 108.935 155.523 109.049 158.724 112.128 159.605 109.119 160.702 109.232 163.903"/><polygon points="115.73 154.005 114.345 152.234 112.233 153.004 113.489 151.14 112.104 149.37 114.265 149.988 115.521 148.124 115.601 150.37 117.762 150.989 115.65 151.759 115.73 154.005"/><polygon points="97.889 160.51 96.504 158.74 94.393 159.51 95.648 157.646 94.264 155.875 96.425 156.494 97.68 154.629 97.76 156.876 99.921 157.494 97.809 158.264 97.889 160.51"/><circle cx="99.653" cy="136.898" r="46.94" fill="none"/><path d="M143.753,120.817c8.881,24.356-3.664,51.3-28.02,60.181-24.356,8.881-51.3-3.664-60.181-28.02" fill="none"/><path d="M139.29,152.97l.811-1.908,1.447.614c.42.178.691.27.812.272.123.004.213-.064.271-.204.066-.157.045-.283-.064-.38-.107-.096-.373-.233-.795-.411l-3.867-1.641c-.404-.172-.678-.263-.818-.272-.143-.01-.244.059-.307.208-.061.141-.039.261.066.356.105.097.387.241.844.436l1.047.443-.809,1.908-.324-.137c-.863-.366-1.451-.679-1.766-.938-.314-.261-.531-.632-.646-1.114-.115-.481-.059-.991.168-1.53.238-.559.547-.971.932-1.236.383-.266.803-.371,1.26-.315.457.054,1.092.255,1.908.601l2.434,1.031c.6.255,1.041.463,1.326.627.285.163.527.394.729.691s.314.64.34,1.026c.023.386-.053.786-.229,1.2-.238.562-.557.974-.959,1.234-.4.262-.811.372-1.229.33-.416-.042-1.014-.226-1.791-.556l-.791-.336Z"/><path d="M134.233,158.953c-.771-.481-1.307-.837-1.607-1.069s-.531-.515-.691-.85c-.16-.334-.223-.689-.186-1.064s.176-.754.412-1.136c.227-.361.496-.646.811-.849.314-.206.66-.311,1.039-.318.377-.008.734.069,1.072.233.336.163.9.492,1.689.984l1.312.818c.771.481,1.307.838,1.607,1.07s.531.516.691.85.223.688.186,1.064c-.037.375-.174.754-.412,1.136-.227.361-.496.645-.811.85-.314.204-.66.311-1.039.317-.377.008-.734-.069-1.072-.233-.336-.163-.898-.491-1.689-.984l-1.312-.819ZM137.853,158.768c.357.223.596.349.717.376.121.026.217-.014.283-.122.059-.092.061-.188.012-.287-.051-.099-.273-.271-.668-.519l-3.582-2.234c-.445-.279-.73-.434-.855-.467s-.223.009-.297.126c-.072.119-.062.233.037.342s.375.303.828.585l3.525,2.2Z"/><path d="M133.446,168.206l-6.783-5.98,1.201-1.363,3.797,1.911-3.084-2.72,1.146-1.3,6.783,5.981-1.146,1.299-3.822-1.821,3.055,2.692-1.146,1.301Z"/><path d="M130.761,170.741l-2.701,2.243-1.156-1.392,1.105-.919-1.094-1.319-.984.818-1.102-1.324.986-.817-2.428-2.922,1.594-1.324,5.779,6.956Z"/><path d="M123.706,175.918l-4.84-7.641,1.752-1.109,4.84,7.641-1.752,1.109Z"/><path d="M120.519,177.729l-1.418.626c-.916.404-1.557.629-1.922.677-.365.047-.68-.002-.943-.146-.266-.145-.477-.341-.637-.591-.16-.248-.414-.765-.758-1.549l-1.279-2.897c-.326-.743-.514-1.253-.564-1.531-.047-.277-.027-.521.064-.729.09-.209.236-.391.438-.546.199-.155.525-.334.98-.533l2.393-1.055,3.646,8.274ZM117.999,177.15l-2.4-5.443c-.273.12-.414.256-.422.409-.008.152.109.504.354,1.056l1.416,3.215c.166.376.281.61.35.707s.15.152.246.169c.098.016.248-.021.457-.112Z"/><path d="M112.569,180.829l-3.348.855-.449-1.753,1.34-.342-.424-1.663-1.254.321-.426-1.667,1.254-.321-.492-1.926-1.475.376-.447-1.753,3.482-.89,2.238,8.762Z"/><path d="M101.011,182.74l-.784-9.009,1.811-.157,1.43,4.003-.355-4.097,1.727-.148.783,9.01-1.729.148-1.51-3.956.354,4.058-1.727.148Z"/><path d="M93.065,182.386l.144-1.804,1.228.099.573-7.211,2.066.165-.573,7.21,1.222.098-.144,1.804-4.516-.36Z"/><path d="M87.917,181.42l1.877-8.846,2.028.43-1.877,8.847-2.028-.431Z"/><path d="M81.127,179.346l1.885-8.923,1.998.702-.436,1.57.7.247.657-1.492,2.021.712-4,8.179-2.826-.995ZM84.094,174.226c-.241,1.001-.562,2.23-.963,3.688.773-1.563,1.319-2.713,1.637-3.45l-.674-.237Z"/><path d="M75.35,176.717l3.289-6.442-1.123-.573.823-1.612,2.969,1.516-4.111,8.055-1.847-.942Z"/><path d="M58.708,116.436l-.81,1.908-1.447-.613c-.42-.179-.691-.27-.813-.272-.122-.004-.212.063-.271.203-.066.156-.045.284.063.38s.374.233.796.412l3.867,1.64c.404.172.678.263.819.272s.243-.059.306-.207c.061-.143.038-.261-.067-.357-.104-.096-.386-.241-.843-.436l-1.047-.443.809-1.908.324.138c.862.365,1.451.678,1.766.938.315.26.531.631.646,1.113s.059.992-.169,1.53c-.237.559-.548.971-.931,1.236-.384.265-.804.371-1.26.316-.457-.055-1.092-.255-1.908-.601l-2.433-1.031c-.601-.255-1.043-.464-1.327-.627-.285-.164-.527-.395-.729-.691-.202-.298-.314-.641-.339-1.026-.024-.387.051-.786.227-1.201.238-.562.559-.974.96-1.234s.811-.371,1.228-.33c.417.042,1.014.228,1.79.557l.792.335Z"/><path d="M63.765,110.453c.771.48,1.306.837,1.607,1.069.301.231.531.516.691.85s.222.688.185,1.064c-.036.376-.174.754-.411,1.136-.227.361-.496.645-.811.849-.314.205-.66.312-1.039.319-.377.008-.734-.07-1.072-.234-.336-.163-.899-.491-1.689-.984l-1.312-.819c-.771-.481-1.307-.838-1.607-1.069-.301-.232-.531-.516-.691-.85s-.223-.689-.186-1.063c.037-.376.174-.755.412-1.137.227-.361.496-.646.811-.85s.66-.311,1.038-.318.735.069,1.072.234c.337.163.9.492,1.69.984l1.312.819ZM60.146,110.639c-.356-.224-.596-.349-.717-.376-.121-.026-.216.014-.284.123-.058.091-.061.187-.011.286.051.099.273.271.668.518l3.583,2.236c.445.277.73.433.854.466s.223-.009.296-.126c.075-.12.062-.233-.036-.343-.1-.107-.375-.303-.827-.584l-3.526-2.2Z"/><path d="M64.551,101.2l6.784,5.98-1.201,1.362-3.797-1.909,3.084,2.719-1.146,1.3-6.784-5.98,1.146-1.3,3.823,1.821-3.055-2.693,1.146-1.3Z"/><path d="M67.238,98.665l2.701-2.244,1.155,1.393-1.105.919,1.096,1.319.985-.818,1.099,1.323-.984.818,2.427,2.922-1.594,1.324-5.779-6.956Z"/><path d="M74.31,93.478l4.836,7.642-1.751,1.108-4.836-7.642,1.751-1.108Z"/><path d="M77.498,91.666l1.42-.624c.915-.403,1.557-.628,1.922-.675.363-.047.679.002.943.146s.478.34.637.589c.159.25.412.766.757,1.55l1.276,2.899c.328.742.516,1.252.563,1.53.049.277.027.521-.063.729-.089.209-.235.392-.437.547s-.526.333-.981.533l-2.393,1.053-3.645-8.277ZM80.018,92.247l2.397,5.445c.273-.121.413-.257.423-.409.009-.152-.109-.504-.353-1.057l-1.416-3.216c-.165-.374-.281-.61-.35-.706-.065-.097-.148-.153-.246-.17-.098-.016-.248.021-.456.112Z"/><path d="M85.428,88.575l3.35-.855.446,1.754-1.339.343.424,1.661,1.255-.32.426,1.666-1.255.321.492,1.927,1.475-.377.448,1.754-3.483.89-2.238-8.763Z"/><path d="M96.987,86.665l.782,9.01-1.811.156-1.429-4.002.354,4.096-1.727.149-.781-9.01,1.726-.149,1.511,3.957-.353-4.058,1.727-.149Z"/><path d="M104.933,87.019l-.143,1.805-1.227-.099-.574,7.211-2.066-.164.574-7.211-1.223-.097.143-1.805,4.516.359Z"/><path d="M110.081,87.985l-1.877,8.847-2.029-.431,1.879-8.847,2.027.431Z"/><path d="M116.872,90.061l-1.885,8.924-2-.703.436-1.57-.699-.246-.658,1.492-2.021-.712,4.002-8.179,2.826.994ZM113.903,95.181c.242-1,.562-2.229.965-3.687-.775,1.562-1.32,2.713-1.637,3.45l.672.236Z"/><path d="M122.647,92.688l-3.289,6.443,1.123.572-.822,1.612-2.969-1.516,4.111-8.055,1.846.942Z"/></svg>