<?xml version="1.0" encoding="UTF-8"?><svg xmlns="http://www.w3.org/2000/svg" width="849.29" height="625.68" viewBox="0 0 849.29 625.68"><defs><style>.e{fill:#81bc06;}.f{fill:#fff;}.g{fill:#05a6f0;}.h{fill:#ffba08;}.i{fill:#f35325;}</style></defs><g id="a"><path class="g" d="M398.52,37.66h-130.61V9.34c0-5.16-4.18-9.34-9.34-9.34h-105.64c-5.16,0-9.34,4.18-9.34,9.34v28.32H12.97c-7.16,0-12.97,5.81-12.97,12.97v240.47c0,7.16,5.81,12.97,12.97,12.97h385.55c7.16,0,12.97-5.81,12.97-12.97V50.63c0-7.16-5.81-12.97-12.97-12.97ZM163.7,20.11h84.09v17.55h-84.09v-17.55Z"/><rect class="f" x="180.97" y="89.57" width="49.55" height="162.58"/><rect class="f" x="180.97" y="89.57" width="49.55" height="162.58" transform="translate(376.61 -34.88) rotate(90)"/></g><g id="b"><path class="e" d="M836.32,37.66h-130.61V9.34c0-5.16-4.18-9.34-9.34-9.34h-105.64c-5.16,0-9.34,4.18-9.34,9.34v28.32h-130.61c-7.16,0-12.97,5.81-12.97,12.97v240.47c0,7.16,5.81,12.97,12.97,12.97h385.55c7.16,0,12.97-5.81,12.97-12.97V50.63c0-7.16-5.81-12.97-12.97-12.97ZM601.5,20.11h84.09v17.55h-84.09v-17.55Z"/><path class="f" d="M652.03,97.99s16.07.99,29.45,8.29l-5.84,15.53s-7.02-4.27-16.98-6.55c-13.08-2.99-30.45-2.6-35.78,14.97,0,0-4.56,15.52,17.62,25.19,4.19,1.83,9.17,4.64,15.18,7.09,0,0,15.5,5.83,23.79,17.37,9.62,13.39,11.68,38.25-9.68,54.19-5.12,3.82-11.99,4.92-19.72,8.52v23.13h-14.24l.12-23.61s-21.73.49-35.3-10.16l5.54-15.15s42.27,25.7,58.06-4.66c1.57-3.02,2.32-6.4,2.16-9.8,0-.03,0-.06,0-.08-.37-7.85-4.56-16.25-23.46-24.83-5.6-2.54-38.8-12.87-39.8-37.7,0,0-4.66-32.41,34.23-40.44v-23.28h14.15v21.98h.49Z"/><path class="f" d="M655.08,270.72h-24.27l.12-23.77c-7.75-.52-22.63-2.65-33.36-11.07l-2.86-2.24,8.88-24.28,5.2,3.16c.21.13,21.76,13,37.88,8.48,5.78-1.62,10.07-5.27,13.14-11.17,1.16-2.23,1.72-4.75,1.6-7.26-.25-5.4-2.81-12.54-20.54-20.59-.47-.21-1.33-.56-2.33-.95-9.72-3.85-39.24-15.54-40.39-40.94-.37-3.69-2.38-35.05,34.22-44.76v-24.32h24.15v22.44c5.97.8,17.26,2.96,27.34,8.45l3.82,2.08-9.5,25.24-5.15-3.14c-.06-.03-6.52-3.89-15.5-5.95-11.23-2.57-25.51-2.66-29.86,11.47-.34,1.36-2.29,11.78,14.81,19.24,1.8.79,3.7,1.72,5.7,2.71,2.78,1.37,5.92,2.92,9.32,4.31,1.37.53,17.16,6.78,26.02,19.11,10.31,14.35,13.79,42.8-10.75,61.12-3.7,2.76-7.88,4.23-12.3,5.8-1.76.62-3.57,1.26-5.41,2v24.84ZM640.87,260.72h4.21v-21.31l2.89-1.35c3.29-1.53,6.42-2.64,9.19-3.61,3.85-1.36,7.17-2.53,9.65-4.38,19.11-14.26,16.54-36.23,8.61-47.27-7.28-10.13-21.36-15.56-21.5-15.61l-.12-.05c-3.75-1.53-7.08-3.17-10.03-4.63-1.9-.94-3.69-1.82-5.27-2.51-20.74-9.05-22.42-24.36-20.42-31.19,5.06-16.64,20.25-23.34,41.7-18.43,5.34,1.22,9.9,2.97,13.15,4.44l2.28-6.05c-10.64-4.67-21.97-5.67-23.35-5.78h-5.31s0-21.98,0-21.98h-4.15v22.35l-3.99.82c-33.62,6.95-30.44,33.72-30.29,34.86l.04.48c.77,19.01,24.97,28.6,34.09,32.21,1.17.46,2.09.83,2.79,1.14,17.65,8.02,25.79,16.99,26.38,29.09v.2c.2,4.23-.74,8.49-2.71,12.29-4.36,8.38-10.87,13.83-19.35,16.19-14.89,4.16-31.96-2.57-40.43-6.72l-2.24,6.12c12.02,7.32,28.99,7.08,29.17,7.07l5.13-.1-.12,23.71Z"/></g><g id="c"><path class="h" d="M398.52,321.61H12.97c-7.16,0-12.97,5.81-12.97,12.97v240.47c0,7.16,5.81,12.97,12.97,12.97h130.61v28.32c0,5.16,4.18,9.34,9.34,9.34h105.64c5.16,0,9.34-4.18,9.34-9.34v-28.32h130.61c7.16,0,12.97-5.81,12.97-12.97v-240.47c0-7.16-5.81-12.97-12.97-12.97ZM247.79,605.57h-84.09v-17.55h84.09v17.55Z"/><polygon class="f" points="214.13 373.4 256.71 373.4 211.55 434.82 254.9 434.82 154.77 536.24 194.52 460.36 158.65 460.36 214.13 373.4"/><path class="f" d="M142.8,552.64l46.76-89.27h-36.39l59.31-92.97h50.16l-45.16,61.42h44.6l-119.29,120.82ZM164.12,457.36h35.36l-32.72,62.47,80.97-82.02h-42.11l45.16-61.42h-35.01l-51.66,80.97Z"/></g><g id="d"><path class="i" d="M836.32,321.61h-385.55c-7.16,0-12.97,5.81-12.97,12.97v240.47c0,7.16,5.81,12.97,12.97,12.97h130.61v28.32c0,5.16,4.18,9.34,9.34,9.34h105.64c5.16,0,9.34-4.18,9.34-9.34v-28.32h130.61c7.16,0,12.97-5.81,12.97-12.97v-240.47c0-7.16-5.81-12.97-12.97-12.97ZM685.59,605.57h-84.09v-17.55h84.09v17.55Z"/><path class="f" d="M736.52,435.76l-16.9-3.38c-3.08-.62-4.34-4.33-2.28-6.7l10.77-12.35c1.26-1.44,1.35-3.56.22-5.1l-15.97-21.77c-1.15-1.56-3.24-2.11-5-1.3l-15.39,7.05c-2.84,1.3-6.04-.94-5.78-4.06l1.47-17.67c.16-1.89-1.01-3.65-2.82-4.23l-25.77-8.31c-1.83-.59-3.83.18-4.79,1.84l-8.93,15.42c-1.59,2.75-5.57,2.71-7.11-.06l-7.75-13.94c-.96-1.73-3.01-2.52-4.89-1.89l-26.4,8.94c-1.83.62-2.98,2.44-2.75,4.37l2.06,16.95c.39,3.2-2.9,5.57-5.81,4.19l-14.27-6.75c-1.76-.83-3.86-.31-5.03,1.25l-17.14,23c-1.17,1.57-1.06,3.75.26,5.2l11.52,12.62c2.18,2.39.85,6.24-2.33,6.79l-15.02,2.55c-1.97.33-3.4,2.04-3.4,4.03v28.54c0,1.95,1.38,3.63,3.29,4.01l15.56,3.08c3.15.62,4.38,4.46,2.19,6.8l-10.92,11.69c-1.37,1.47-1.47,3.72-.24,5.31l17.76,22.77c1.19,1.52,3.27,2.01,5.01,1.17l14.79-7.16c2.91-1.41,6.23.96,5.84,4.18l-1.79,14.59c-.23,1.9.88,3.71,2.69,4.35l27.61,9.83c1.93.69,4.07-.16,5-1.98l7.19-13.93c1.51-2.92,5.68-2.96,7.23-.06l7.57,14.08c.95,1.77,3.06,2.59,4.96,1.92l26.71-9.39c1.78-.62,2.9-2.38,2.71-4.25l-1.59-16.41c-.3-3.12,2.87-5.4,5.73-4.13l13.81,6.14c1.75.78,3.81.23,4.95-1.31l16.95-23.02c1.16-1.58,1.04-3.76-.29-5.2l-11.45-12.4c-2.14-2.32-.95-6.1,2.13-6.77l15.87-3.46c1.88-.41,3.22-2.07,3.22-3.99v-27.68c0-1.95-1.38-3.63-3.29-4.01ZM643.55,510.49c-30.71,0-55.61-24.9-55.61-55.61s24.9-55.61,55.61-55.61,55.61,24.9,55.61,55.61-24.9,55.61-55.61,55.61Z"/></g></svg>