<?xml version="1.0" encoding="UTF-8"?><svg id="a" xmlns="http://www.w3.org/2000/svg" width="1.25in" height="1.1in" viewBox="0 0 90 79.2"><rect x="-.5" y="-.5" width="91" height="80.2" fill="#fff"/><path d="M90,0v79.2H0V0h90M91-1H-1v81.2h92V-1h0Z"/><rect x="2.384" y="32.795" width="39.134" height="26.669" fill="#bcbec0"/><rect x="42.964" y="32.795" width="44.955" height="3.572" fill="#bcbec0"/><rect x="43.093" y="55.891" width="44.955" height="3.572" fill="#bcbec0"/><rect x="2.384" y="61.456" width="85.665" height="3.572" fill="#bcbec0"/><rect x="42.964" y="44.343" width="44.955" height="3.572" fill="#bcbec0"/><rect x="43.222" y="38.569" width="44.955" height="3.572" fill="#bcbec0"/><rect x="42.964" y="50.117" width="44.955" height="3.572" fill="#bcbec0"/><path d="M11.582,19.444c1.111,0,2.002.203,2.644.672.61.454,1.032,1.188,1.032,2.221,0,2.284-1.955,3.207-3.441,3.207-.172,0-.329-.016-.422-.031l-1.079-.282v2.44c0,1.314.109,1.345,1.548,1.501v.438h-4.317v-.438c1.345-.141,1.408-.234,1.408-1.533v-6.209c0-1.392-.172-1.423-1.408-1.548v-.438h4.035ZM10.316,24.684c.188.094.61.204,1.142.204,1.048,0,2.346-.532,2.346-2.502,0-1.721-1.126-2.409-2.44-2.409-.454,0-.782.078-.876.188-.125.109-.172.297-.172.72v3.8Z" fill="#231f20"/><path d="M25.834,29.735c-.203,0-.375-.016-.579-.031-1.142-.078-1.752-.375-2.44-1.345-.579-.798-1.142-1.783-1.642-2.581-.313-.5-.516-.594-1.314-.594h-.547v2.456c0,1.33.172,1.408,1.423,1.533v.438h-4.176v-.438c1.298-.141,1.408-.203,1.408-1.533v-6.24c0-1.33-.172-1.376-1.408-1.517v-.438h3.988c1.142,0,1.908.141,2.502.532.642.407,1.063,1.11,1.063,2.064,0,1.345-.86,2.189-2.018,2.69.282.485.954,1.533,1.423,2.237.579.829.876,1.22,1.236,1.611.422.454.782.625,1.142.719l-.062.438ZM20.062,24.652c.813,0,1.33-.125,1.721-.454.61-.454.86-1.079.86-1.924,0-1.673-1.111-2.283-2.315-2.283-.454,0-.719.062-.829.156-.141.109-.188.266-.188.672v3.832h.75Z" fill="#231f20"/><path d="M38.037,21.9c-.141-.5-.329-1.017-.5-1.298-.25-.422-.407-.532-1.267-.532h-1.564v7.617c0,1.22.125,1.392,1.611,1.486v.438h-4.551v-.438c1.455-.094,1.58-.25,1.58-1.486v-7.617h-1.423c-.86,0-1.111.094-1.376.563-.188.313-.313.688-.516,1.267h-.469c.094-.954.188-1.939.234-2.815h.36c.235.375.407.36.845.36h6.193c.438,0,.563-.062.798-.36h.375c0,.735.062,1.861.141,2.768l-.469.047Z" fill="#231f20"/><path d="M45.078,19.225c2.674,0,5.068,2.049,5.068,5.162,0,3.362-2.284,5.458-5.162,5.458-3.003,0-5.193-2.283-5.193-5.224,0-2.8,1.986-5.396,5.287-5.396ZM44.765,19.804c-1.751,0-3.347,1.47-3.347,4.395,0,2.909,1.595,5.052,3.816,5.052,1.893,0,3.316-1.408,3.316-4.426,0-3.284-1.736-5.021-3.785-5.021Z" fill="#231f20"/><path d="M51.667,19.444h4.176v.438c-1.22.109-1.439.219-1.439,1.611v2.69c.313-.031.673-.281,1.127-.719.875-.829,1.923-1.893,2.643-2.706.47-.532.423-.735-.25-.829l-.438-.047v-.438h3.8v.438c-1.173.141-1.579.219-2.627,1.298-.47.454-1.689,1.642-2.69,2.627,1.188,1.408,2.925,3.41,3.738,4.27.798.86,1.001.985,1.971,1.095v.438h-2.503c-1.204-1.361-2.471-2.878-3.895-4.536-.359-.438-.625-.469-.876-.454v2.972c0,1.361.142,1.47,1.439,1.58v.438h-4.176v-.438c1.282-.109,1.407-.219,1.407-1.58v-6.1c0-1.408-.109-1.517-1.407-1.611v-.438Z" fill="#231f20"/><path d="M70.548,27.124c-.094.407-.517,2.018-.673,2.487h-7.601v-.438c1.454-.109,1.563-.25,1.563-1.533v-6.178c0-1.392-.172-1.47-1.345-1.58v-.438h4.786c1.47,0,2.08-.016,2.268-.031.016.391.078,1.564.141,2.393l-.47.079c-.141-.532-.297-.86-.469-1.189-.25-.516-.61-.625-1.549-.625h-1.485c-.484,0-.517.047-.517.5v3.457h1.736c1.173,0,1.251-.235,1.439-1.298h.484v3.222h-.484c-.204-1.126-.329-1.283-1.455-1.283h-1.721v3.112c0,1.095.345,1.189,1.127,1.205h1.454c.954,0,1.11-.141,1.455-.547.297-.329.625-.97.844-1.439l.47.125Z" fill="#231f20"/><path d="M82.453,19.882c-1,.109-1.329.266-1.376.985-.016.5-.047,1.157-.047,2.612v6.271h-.595l-6.693-8.18v3.91c0,1.408.047,2.111.078,2.565.031.797.422,1.032,1.548,1.126v.438h-3.8v-.438c.97-.078,1.345-.313,1.407-1.079.047-.5.078-1.204.078-2.627v-3.988c0-.438-.031-.688-.312-1.032-.298-.391-.626-.485-1.393-.563v-.438h2.347l6.631,7.867v-3.832c0-1.455-.031-2.127-.078-2.596-.047-.704-.406-.923-1.657-1.001v-.438h3.862v.438Z" fill="#231f20"/><path d="M31.28,68.451c-.648.068-.742.101-.838.739-.182,1.271-.292,2.265-.427,3.397-.096.8-.035.857.653.918l-.066.281h-2.446l.072-.281c.625-.063.688-.118.812-.912.182-1.237.33-2.315.503-3.471h-.026c-.896,1.541-1.964,3.398-2.655,4.664h-.244c-.2-1.234-.604-3.015-.914-4.628h-.028l-.543,2.201c-.208.852-.309,1.312-.34,1.55-.072.442.06.54.698.596l-.066.281h-2.129l.072-.281c.588-.044.724-.165.874-.562.122-.326.275-.806.503-1.666l.494-1.864c.211-.791.202-.882-.604-.963l.092-.288h1.65c.269,1.237.688,2.818.943,4.03l2.378-4.03h1.667l-.083.288Z" fill="#231f20"/><path d="M36.555,73.786h-2.359l.066-.281c.612-.063.647-.164.598-.559-.043-.315-.101-.675-.162-1.075h-1.699c-.158.293-.396.688-.562,1.027-.212.426-.155.531.556.606l-.063.281h-2.077l.072-.281c.616-.081.711-.139,1.18-.933l2.566-4.445.37-.055c.358,2.279.588,3.552.766,4.615.106.656.165.745.824.817l-.077.281ZM34.334,69.433h-.017c-.374.697-.776,1.406-1.114,2.036h1.437l-.306-2.036Z" fill="#231f20"/><path d="M42.495,68.451c-.577.063-.727.126-1.161.577-.278.293-.71.814-1.336,1.58l.938,2.116c.289.66.39.714,1.036.781l-.074.281h-2.454l.068-.281.211-.035c.329-.049.373-.129.263-.418-.096-.263-.239-.615-.687-1.674-.532.679-.955,1.209-1.242,1.641-.193.296-.129.394.22.449l.282.037-.078.281h-2.122l.069-.281c.533-.063.691-.138,1.031-.483.294-.304,1.002-1.164,1.665-2.009l-.807-1.916c-.217-.503-.35-.592-.938-.646l.072-.288h2.339l-.069.288-.256.04c-.244.04-.299.106-.237.292.13.339.327.855.61,1.466.378-.463.776-.971,1.062-1.386.165-.251.119-.332-.198-.375l-.229-.037.063-.288h2.022l-.063.288Z" fill="#231f20"/><path d="M43.633,73.89c-.324,0-.554-.246-.554-.588,0-.391.279-.695.658-.695.33,0,.56.244.56.606,0,.428-.324.677-.663.677ZM43.991,71.409c-.325,0-.551-.243-.551-.583,0-.396.273-.7.658-.7.327,0,.557.253.557.605,0,.437-.33.678-.663.678Z" fill="#231f20"/><path d="M52.886,67.978c-.101.37-.204,1.053-.282,1.554l-.313.017c0-.149-.011-.407-.051-.565-.055-.33-.187-.457-.822-.457h-.511l-.797,4.18c-.124.656-.071.744.728.8l-.063.281h-2.649l.066-.281c.735-.056.802-.158.926-.8l.808-4.18h-.418c-.658,0-.811.101-.983.337-.133.167-.254.375-.396.678l-.315-.015c.155-.547.299-1.077.377-1.548h.222c.092.188.176.185.409.185h3.396c.22,0,.258-.025.433-.185h.238Z" fill="#231f20"/><path d="M61.325,68.451c-.53.074-.666.12-1.026.832-.434.84-1.143,2.286-2.271,4.599h-.387l-.62-4.07-2.022,4.07h-.381l-.461-4.62c-.069-.682-.112-.756-.729-.811l.063-.288h2.279l-.074.288-.188.031c-.357.061-.436.104-.398.582l.261,3.257,2.025-4.091h.357l.609,4.122c.559-1.099,1.167-2.424,1.491-3.181.237-.557.143-.646-.35-.698l-.165-.022.068-.288h1.994l-.077.288Z" fill="#231f20"/><path d="M66.707,70.481c0,1.867-1.339,3.436-3.161,3.436-1.412,0-2.336-.932-2.336-2.416,0-1.771,1.311-3.459,3.169-3.459,1.44,0,2.328.963,2.328,2.439ZM62.326,71.688c0,1.12.38,1.872,1.283,1.872,1.282,0,1.98-1.766,1.98-3.261,0-1.178-.33-1.901-1.266-1.901-1.192,0-1.998,1.674-1.998,3.29Z" fill="#231f20"/><path d="M7.194,11.071c-.104.37-.296.933-.414,1.191-.192.044-.799.192-1.362.192-1.991,0-2.812-1.28-2.812-2.457,0-1.532,1.169-2.568,2.945-2.568.644,0,1.213.156,1.398.178.037.348.089.896.141,1.221l-.296.052c-.155-.577-.377-.851-.77-1.006-.178-.074-.444-.104-.644-.104-1.073,0-1.613.896-1.613,2.058,0,1.354.696,2.272,1.709,2.272.622,0,1.036-.326,1.436-1.14l.281.111Z" fill="#231f20"/><path d="M10.418,7.43c1.369,0,2.487.999,2.487,2.457,0,1.576-1.125,2.568-2.524,2.568-1.48,0-2.553-1.08-2.553-2.509,0-1.265.903-2.516,2.59-2.516ZM10.307,7.756c-.755,0-1.31.74-1.31,2.05,0,1.251.496,2.324,1.495,2.324.703,0,1.25-.681,1.25-2.035,0-1.465-.577-2.339-1.436-2.339Z" fill="#231f20"/><path d="M18.209,12.389c-.044,0-.133,0-.222-.007-.94-.044-1.214-.244-1.436-.555-.296-.407-.511-.858-.763-1.302-.111-.2-.214-.245-.451-.245l-.148-.007v1.081c0,.6.074.651.629.718v.274h-2.265v-.274c.562-.059.629-.118.629-.718v-2.834c0-.584-.074-.666-.629-.71v-.274h2.146c.658,0,1.036.074,1.339.281.296.2.496.525.496.984,0,.659-.437,1.006-.925,1.199.111.222.399.703.622,1.044.259.407.422.606.562.77.17.192.251.251.466.326l-.052.251ZM15.389,9.969c.318,0,.562-.052.725-.192.244-.208.348-.489.348-.866,0-.784-.452-1.065-.866-1.065-.2,0-.296.03-.34.074-.052.044-.066.133-.066.281v1.769h.2Z" fill="#231f20"/><path d="M20.626,7.534c.584,0,1.028.104,1.332.304.37.244.577.599.577,1.11,0,1.073-.91,1.524-1.702,1.532-.074,0-.17-.008-.222-.015l-.429-.111v1.006c0,.622.052.651.696.71v.274h-2.354v-.274c.555-.066.629-.089.629-.71v-2.827c0-.622-.074-.688-.629-.726v-.274h2.102ZM20.181,10.042c.089.044.237.074.393.074.34,0,.895-.2.895-1.177,0-.829-.451-1.103-.932-1.103-.156,0-.244.037-.289.074-.052.044-.067.119-.067.229v1.902Z" fill="#231f20"/><path d="M25.854,7.43c1.369,0,2.487.999,2.487,2.457,0,1.576-1.125,2.568-2.524,2.568-1.48,0-2.553-1.08-2.553-2.509,0-1.265.903-2.516,2.59-2.516ZM25.743,7.756c-.755,0-1.31.74-1.31,2.05,0,1.251.496,2.324,1.495,2.324.703,0,1.25-.681,1.25-2.035,0-1.465-.577-2.339-1.436-2.339Z" fill="#231f20"/><path d="M33.645,12.389c-.044,0-.133,0-.222-.007-.94-.044-1.214-.244-1.436-.555-.296-.407-.511-.858-.763-1.302-.111-.2-.214-.245-.451-.245l-.148-.007v1.081c0,.6.074.651.629.718v.274h-2.265v-.274c.562-.059.629-.118.629-.718v-2.834c0-.584-.074-.666-.629-.71v-.274h2.146c.658,0,1.036.074,1.339.281.296.2.496.525.496.984,0,.659-.437,1.006-.925,1.199.111.222.399.703.622,1.044.259.407.422.606.562.77.17.192.251.251.466.326l-.052.251ZM30.825,9.969c.318,0,.562-.052.725-.192.244-.208.348-.489.348-.866,0-.784-.452-1.065-.866-1.065-.2,0-.296.03-.34.074-.052.044-.066.133-.066.281v1.769h.2Z" fill="#231f20"/><path d="M36.728,12.344v-.274c.466-.066.466-.148.362-.466-.074-.222-.192-.555-.303-.851h-1.443c-.082.229-.185.511-.259.74-.155.466.022.525.607.577v.274h-1.828v-.274c.466-.059.585-.125.836-.748l1.539-3.826.355-.067c.474,1.288.977,2.605,1.458,3.841.274.688.34.74.821.799v.274h-2.146ZM36.077,8.807c-.215.533-.422,1.029-.607,1.569h1.177l-.57-1.569Z" fill="#231f20"/><path d="M42.645,8.814c-.082-.34-.244-.622-.318-.725-.133-.155-.192-.214-.629-.214h-.474v3.478c0,.622.074.666.732.718v.274h-2.457v-.274c.629-.052.696-.096.696-.718v-3.478h-.451c-.415,0-.533.066-.674.244-.104.141-.207.407-.303.703h-.281c.052-.541.104-1.118.119-1.473h.222c.111.17.2.185.422.185h2.96c.2,0,.303-.044.429-.185h.214c.007.311.037.962.074,1.443l-.281.022Z" fill="#231f20"/><path d="M47.511,11.086c-.037.2-.244,1.051-.311,1.258h-3.841v-.267c.674-.066.718-.104.718-.725v-2.827c0-.629-.089-.673-.592-.718v-.274h2.405c.777,0,1.036-.007,1.14-.015.008.133.045.74.074,1.199l-.288.037c-.067-.251-.192-.555-.318-.688-.134-.148-.229-.192-.607-.192h-.48c-.281,0-.311.015-.311.266v1.547h.725c.415,0,.488-.111.6-.637h.289v1.65h-.289c-.118-.547-.178-.636-.606-.636h-.718v1.273c0,.511.015.666.474.673h.526c.414,0,.525-.052.688-.251.186-.215.333-.489.452-.74l.273.066Z" fill="#231f20"/><path d="M52.356,8.755c-.147-.474-.354-1.014-1.036-1.014-.429,0-.71.303-.71.718,0,.407.273.651.925.977.792.392,1.295.777,1.295,1.509,0,.874-.725,1.51-1.783,1.51-.474,0-.896-.125-1.243-.229-.045-.17-.17-.939-.222-1.288l.288-.066c.148.466.562,1.273,1.288,1.273.451,0,.725-.281.725-.755,0-.429-.266-.681-.888-1.014-.77-.414-1.272-.784-1.272-1.554,0-.777.606-1.392,1.717-1.392.511,0,.896.111,1.058.133.03.274.082.659.141,1.125l-.281.066Z" fill="#231f20"/><path d="M55.763,12.344v-.274c.467-.066.467-.148.363-.466-.074-.222-.192-.555-.304-.851h-1.443c-.081.229-.185.511-.259.74-.155.466.022.525.606.577v.274h-1.827v-.274c.466-.059.584-.125.836-.748l1.539-3.826.355-.067c.474,1.288.977,2.605,1.458,3.841.273.688.34.74.821.799v.274h-2.146ZM55.113,8.807c-.215.533-.422,1.029-.607,1.569h1.177l-.569-1.569Z" fill="#231f20"/><path d="M61.045,9.695c.777.141,1.324.511,1.324,1.214,0,.458-.288.888-.71,1.125-.378.208-.858.311-1.406.311h-2.072v-.274c.57-.059.629-.096.629-.718v-2.819c0-.622-.096-.688-.621-.726v-.274h2.249c.562,0,.918.074,1.214.259.274.178.452.459.452.821,0,.614-.578.984-1.059,1.081ZM60.104,9.599c.703,0,.963-.303.963-.851,0-.644-.422-.888-.829-.888-.178,0-.289.022-.348.06-.082.052-.074.118-.074.273v1.406h.288ZM59.816,11.338c0,.533.244.695.644.688.407-.007.807-.362.807-1.051,0-.718-.362-1.058-1.191-1.058h-.259v1.421Z" fill="#231f20"/><path d="M65.652,7.43c1.369,0,2.486.999,2.486,2.457,0,1.576-1.125,2.568-2.523,2.568-1.48,0-2.554-1.08-2.554-2.509,0-1.265.903-2.516,2.591-2.516ZM65.541,7.756c-.755,0-1.31.74-1.31,2.05,0,1.251.495,2.324,1.494,2.324.703,0,1.251-.681,1.251-2.035,0-1.465-.577-2.339-1.436-2.339Z" fill="#231f20"/><path d="M72.776,8.814c-.081-.34-.244-.622-.318-.725-.133-.155-.192-.214-.629-.214h-.474v3.478c0,.622.074.666.732.718v.274h-2.457v-.274c.629-.052.696-.096.696-.718v-3.478h-.452c-.414,0-.532.066-.673.244-.104.141-.207.407-.304.703h-.281c.052-.541.104-1.118.118-1.473h.223c.11.17.199.185.422.185h2.96c.199,0,.304-.044.429-.185h.215c.008.311.037.962.074,1.443l-.281.022Z" fill="#231f20"/><path d="M75.585,12.344v-.274c.467-.066.467-.148.363-.466-.074-.222-.192-.555-.304-.851h-1.443c-.081.229-.185.511-.259.74-.155.466.022.525.606.577v.274h-1.827v-.274c.466-.059.584-.125.836-.748l1.539-3.826.355-.067c.474,1.288.977,2.605,1.458,3.841.273.688.34.74.821.799v.274h-2.146ZM74.934,8.807c-.215.533-.422,1.029-.607,1.569h1.177l-.569-1.569Z" fill="#231f20"/><path d="M82.909,10.316c-.422.074-.474.104-.474.607v.57c0,.267.007.518.044.718-.377.067-1.191.244-1.791.244-1.739,0-2.738-1.058-2.738-2.523,0-1.665,1.354-2.501,2.931-2.501.6,0,1.251.148,1.495.17.015.326.074.888.126,1.295l-.289.052c-.178-.629-.451-.947-.91-1.103-.17-.059-.444-.089-.629-.089-.896,0-1.569.777-1.569,2.05,0,1.303.459,2.332,1.673,2.332.148,0,.341-.022.474-.104.111-.066.17-.192.17-.421v-.651c0-.518-.104-.57-.725-.644v-.274h2.213v.274Z" fill="#231f20"/><path d="M87.495,11.086c-.037.2-.245,1.051-.312,1.258h-3.841v-.267c.674-.066.718-.104.718-.725v-2.827c0-.629-.089-.673-.592-.718v-.274h2.405c.777,0,1.036-.007,1.14-.015.008.133.044.74.074,1.199l-.289.037c-.066-.251-.192-.555-.318-.688-.133-.148-.229-.192-.606-.192h-.481c-.281,0-.311.015-.311.266v1.547h.726c.414,0,.488-.111.6-.637h.288v1.65h-.288c-.119-.547-.178-.636-.607-.636h-.718v1.273c0,.511.015.666.474.673h.525c.414,0,.525-.052.688-.251.185-.215.333-.489.451-.74l.274.066Z" fill="#231f20"/><line x1="2.2" y1="15.837" x2="87.736" y2="15.837" stroke="#000" stroke-miterlimit="10" stroke-width=".75"/><line x1="2.2" y1="14.86" x2="87.736" y2="14.86" fill="none" stroke="#000" stroke-miterlimit="10" stroke-width=".25"/><line x1="87.8" y1="3.694" x2="2.264" y2="3.694" stroke="#000" stroke-miterlimit="10" stroke-width=".75"/><line x1="87.8" y1="4.672" x2="2.264" y2="4.672" fill="none" stroke="#000" stroke-miterlimit="10" stroke-width=".25"/></svg>